<svg width="11" height="14" viewBox="0 0 11 14" fill="none" xmlns="http://www.w3.org/2000/svg">
<path fill-rule="evenodd" clip-rule="evenodd" d="M5.99046 3.86309C6.52398 3.86309 7.00811 4.08045 7.35391 4.42625C8.10479 5.17713 9.32991 5.17713 10.0907 4.42625C10.8416 3.67537 10.8416 2.45025 10.0907 1.68948C9.04339 0.652082 7.59103 0 5.99046 0C2.78933 0 0.190887 2.59845 0.190887 5.79958C0.190887 7.40014 0.842969 8.8525 1.89025 9.89979L5.99046 14L10.0907 9.89979C10.8416 9.14891 10.8416 7.92378 10.0907 7.16302C9.33979 6.41214 8.11467 6.41214 7.35391 7.16302L5.99046 8.53634L4.62702 7.16302C4.28122 6.81722 4.06386 6.3331 4.06386 5.79958C4.05398 4.73253 4.92342 3.86309 5.99046 3.86309ZM3.94528 7.85463L6.00033 9.90967L8.05537 7.85463C8.43081 7.47918 9.04337 7.47918 9.41882 7.85463C9.79426 8.23007 9.79426 8.84263 9.41882 9.21807L6.00033 12.6366L2.57196 9.21807C1.70251 8.33875 1.15911 7.13338 1.15911 5.79958C1.15911 3.13197 3.32284 0.968246 5.99045 0.968246C7.32425 0.968246 8.52961 1.51165 9.40894 2.38109C9.78438 2.75653 9.78438 3.36909 9.40894 3.74453C9.03349 4.11998 8.42093 4.11998 8.04549 3.74453C7.52185 3.22089 6.79073 2.89485 5.99045 2.89485C4.38988 2.89485 3.08572 4.18914 3.08572 5.79958C3.0956 6.59986 3.41176 7.33098 3.94528 7.85463Z" fill="#7350FF"/>
</svg>
